<svg viewBox="0 0 1600 900" xmlns="http://www.w3.org/2000/svg" preserveAspectRatio="xMidYMid slice">
  <defs>
    <linearGradient id="vg-sky" x1="0" y1="0" x2="0" y2="1">
      <stop offset="0" stop-color="#1E3A8A"/><stop offset="1" stop-color="#3B82F6"/>
    </linearGradient>
    <radialGradient id="vg-sun" cx="0.5" cy="0.5" r="0.5">
      <stop offset="0" stop-color="#F59E0B" stop-opacity="0.95"/>
      <stop offset="0.55" stop-color="#F59E0B" stop-opacity="0.35"/>
      <stop offset="1" stop-color="#F59E0B" stop-opacity="0"/>
    </radialGradient>
    <linearGradient id="vg-haze" x1="0" y1="0" x2="0" y2="1">
      <stop offset="0" stop-color="#FFFFFF" stop-opacity="0"/>
      <stop offset="1" stop-color="#FFFFFF" stop-opacity="0.10"/>
    </linearGradient>
  </defs>
  <rect width="1600" height="900" fill="url(#vg-sky)"/>
  <circle cx="1250" cy="210" r="286" fill="url(#vg-sun)"/>
  <circle cx="1250" cy="210" r="46" fill="#F59E0B" opacity="0.85"/>
  <rect y="430" width="1600" height="470" fill="url(#vg-haze)"/>
  <path d="M0 560 C 210 470 350 520 520 555 C 700 592 830 540 1010 520 C 1200 498 1400 545 1600 512 L1600 900 L0 900 Z" fill="#152C6B" opacity="0.75"/>
  <path d="M0 640 C 240 578 430 620 640 640 C 880 662 1090 612 1310 628 C 1430 637 1520 660 1600 648 L1600 900 L0 900 Z" fill="#1B3578" opacity="0.85"/>
  <path d="M0 766 C 300 742 600 784 900 760 C 1180 738 1400 776 1600 752 L1600 900 L0 900 Z" fill="#0F2557"/>
  <g>
    <rect x="632" y="748" width="336" height="20" rx="4" fill="#E8EEF9" opacity="0.95"/>
    <rect x="650" y="598" width="300" height="168" rx="4" fill="#E8EEF9" opacity="0.18"/>
    <rect x="688" y="632" width="20" height="116" fill="#E8EEF9" opacity="0.92"/><rect x="740" y="632" width="20" height="116" fill="#E8EEF9" opacity="0.92"/><rect x="792" y="632" width="20" height="116" fill="#E8EEF9" opacity="0.92"/><rect x="844" y="632" width="20" height="116" fill="#E8EEF9" opacity="0.92"/><rect x="896" y="632" width="20" height="116" fill="#E8EEF9" opacity="0.92"/>
    <path d="M626 632 L800 568 L974 632 Z" fill="#E8EEF9" opacity="0.95"/>
    <path d="M754 568 a46 46 0 0 1 92 0 Z" fill="#F59E0B"/>
    <rect x="797" y="480" width="6" height="88" fill="#E8EEF9" opacity="0.9"/>
    <path d="M803 480 l72 20 -72 20 Z" fill="#F59E0B"/>
  </g>
  <g stroke="#F59E0B" stroke-width="5" opacity="0.8" fill="none">
    <path d="M120 400 q340 120 680 60 q340 -60 680 60"/>
  </g>
  <g fill="#F59E0B" opacity="0.9">
    <circle cx="300" cy="446" r="10"/><circle cx="640" cy="470" r="10"/><circle cx="980" cy="452" r="10"/><circle cx="1320" cy="470" r="10"/>
  </g>
  <g opacity="0.9" fill="#E8EEF9"><circle cx="360" cy="756" r="15"/><path d="M339 812 q0 -33 20 -33 q20 0 20 33 Z"/></g>
  <g opacity="0.9" fill="#E8EEF9"><circle cx="430" cy="767" r="14"/><path d="M411 818 q0 -30 18 -30 q18 0 18 30 Z"/></g>
  <g opacity="0.9" fill="#E8EEF9"><circle cx="1180" cy="758" r="15"/><path d="M1159 814 q0 -33 20 -33 q20 0 20 33 Z"/></g>
  <g opacity="0.9" fill="#E8EEF9"><circle cx="1250" cy="769" r="14"/><path d="M1231 820 q0 -30 18 -30 q18 0 18 30 Z"/></g>
</svg>
